<svg xmlns="http://www.w3.org/2000/svg" x="0" y="0" viewBox="0 0 24 24"><path  d="M16.4 10.7h3.7v6.5h-3.7v-6.5z"/><path  d="M10.2 10.7h3.7v6.5h-3.7v-6.5z"/><path  d="M20.8 18.3H3.2c-.6 0-1.2.5-1.2 1.2v1.4c0 .6.5 1.2 1.2 1.2h17.6c.6 0 1.2-.5 1.2-1.2v-1.4c0-.6-.5-1.1-1.2-1.2z"/><path  d="M21.3 5.7l-8.8-3.6c-.3-.1-.6-.1-.9 0L2.7 5.7c-.4.2-.7.6-.7 1.1v1.5c0 .7.5 1.2 1.2 1.2h17.6c.7 0 1.2-.5 1.2-1.2V6.8c0-.5-.3-.9-.7-1.1zm-8.7.7c0 .3-.3.6-.6.6s-.5-.3-.6-.6V5.1c0-.3.3-.6.6-.6s.5.3.6.6v1.3z"/><path  d="M3.9 10.7h3.7v6.5H3.9v-6.5z"/></svg>

