<svg xmlns="http://www.w3.org/2000/svg" x="0" y="0" viewBox="0 0 24 24"><path d="M19.3 2H4.7C3.2 2 2 3.2 2 4.7v14.5C2 20.8 3.2 22 4.7 22h14.5c1.5 0 2.7-1.2 2.7-2.7V4.7C22 3.2 20.8 2 19.3 2zm1.8 17.3c0 1-.8 1.8-1.8 1.8H4.7c-1 0-1.8-.8-1.8-1.8V4.7c0-1 .8-1.8 1.8-1.8h14.5c1 0 1.8.8 1.8 1.8l.1 14.6z"/><circle cx="7.6" cy="4.9" r=".8"/><circle cx="12" cy="4.9" r=".8"/><circle cx="16.4" cy="4.9" r=".8"/><path d="M8.7 9.8h2.8v2.5H8.7z"/><path d="M12.5 9.8h2.8v2.5h-2.8z"/><path d="M16.2 9.8H19v2.5h-2.8z"/><path d="M5 13.1h2.8v2.5H5z"/><path d="M8.7 13.1h2.8v2.5H8.7z"/><path d="M12.5 13.1h2.8v2.5h-2.8z"/><path d="M16.2 13.1H19v2.5h-2.8z"/><path d="M5 16.4h2.8v2.5H5z"/><path d="M8.7 16.4h2.8v2.5H8.7z"/><path d="M12.5 16.4h2.8v2.5h-2.8z"/><path d="M16.2 16.4H19v2.5h-2.8z"/></svg>
