<svg id="annual-calendar-page" xmlns="http://www.w3.org/2000/svg" width="12" height="12" viewBox="0 0 12 12">
  <g id="Group_43" data-name="Group 43">
    <path id="Path_74" data-name="Path 74" d="M10.364,0H1.636A1.638,1.638,0,0,0,0,1.636v8.727A1.639,1.639,0,0,0,1.636,12h8.727A1.639,1.639,0,0,0,12,10.364V1.636A1.639,1.639,0,0,0,10.364,0Zm1.091,10.364a1.1,1.1,0,0,1-1.091,1.091H1.636A1.1,1.1,0,0,1,.545,10.364V1.636A1.094,1.094,0,0,1,1.636.545h8.727a1.094,1.094,0,0,1,1.091,1.091Z" fill="#c6c6c6"/>
    <circle id="Ellipse_13" data-name="Ellipse 13" cx="0.463" cy="0.463" r="0.463" transform="translate(2.901 1.273)" fill="#c6c6c6"/>
    <circle id="Ellipse_14" data-name="Ellipse 14" cx="0.463" cy="0.463" r="0.463" transform="translate(5.537 1.273)" fill="#c6c6c6"/>
    <circle id="Ellipse_15" data-name="Ellipse 15" cx="0.463" cy="0.463" r="0.463" transform="translate(8.173 1.273)" fill="#c6c6c6"/>
    <rect id="Rectangle_25" data-name="Rectangle 25" width="1.671" height="1.487" transform="translate(4.049 4.692)" fill="#c6c6c6"/>
    <rect id="Rectangle_26" data-name="Rectangle 26" width="1.671" height="1.487" transform="translate(6.28 4.692)" fill="#c6c6c6"/>
    <rect id="Rectangle_27" data-name="Rectangle 27" width="1.671" height="1.487" transform="translate(8.511 4.692)" fill="#c6c6c6"/>
    <rect id="Rectangle_28" data-name="Rectangle 28" width="1.671" height="1.486" transform="translate(1.818 6.676)" fill="#c6c6c6"/>
    <rect id="Rectangle_29" data-name="Rectangle 29" width="1.671" height="1.486" transform="translate(4.049 6.676)" fill="#c6c6c6"/>
    <rect id="Rectangle_30" data-name="Rectangle 30" width="1.671" height="1.486" transform="translate(6.28 6.676)" fill="#c6c6c6"/>
    <rect id="Rectangle_31" data-name="Rectangle 31" width="1.671" height="1.486" transform="translate(8.511 6.676)" fill="#c6c6c6"/>
    <rect id="Rectangle_32" data-name="Rectangle 32" width="1.671" height="1.486" transform="translate(1.818 8.66)" fill="#c6c6c6"/>
    <rect id="Rectangle_33" data-name="Rectangle 33" width="1.671" height="1.486" transform="translate(4.049 8.66)" fill="#c6c6c6"/>
    <rect id="Rectangle_34" data-name="Rectangle 34" width="1.671" height="1.486" transform="translate(6.28 8.66)" fill="#c6c6c6"/>
    <rect id="Rectangle_35" data-name="Rectangle 35" width="1.671" height="1.486" transform="translate(8.511 8.66)" fill="#c6c6c6"/>
  </g>
</svg>

